# Blender v2.60 (sub 0) OBJ File: 'bin.blend'
# www.blender.org
mtllib bin.mtl
o Cube
v -0.738423 1.619226 0.237482
v -0.821108 1.619226 0.229338
v -0.900615 1.619226 0.205220
v -0.973889 1.619226 0.166054
v -1.038113 1.619226 0.113346
v -1.090822 1.619226 0.049120
v -1.129987 1.619226 -0.024154
v -1.154106 1.619226 -0.103660
v -1.162249 1.619226 -0.186345
v -1.154106 1.619226 -0.269029
v -1.129988 1.619226 -0.348536
v -1.090822 1.619226 -0.421810
v -1.038113 1.619226 -0.486035
v -0.973889 1.619226 -0.538744
v -0.900614 1.619226 -0.577909
v -0.821108 1.619226 -0.602028
v -0.738423 1.619226 -0.610171
v -0.655738 1.619226 -0.602028
v -0.576232 1.619226 -0.577909
v -0.502958 1.619226 -0.538743
v -0.438732 1.619226 -0.486035
v -0.386024 1.619226 -0.421810
v -0.346859 1.619226 -0.348536
v -0.322741 1.619226 -0.269029
v -0.314597 1.619226 -0.186345
v -0.322741 1.619226 -0.103660
v -0.346859 1.619226 -0.024153
v -0.386025 1.619226 0.049121
v -0.438733 1.619226 0.113346
v -0.502958 1.619226 0.166054
v -0.576232 1.619226 0.205220
v -0.655739 1.619226 0.229338
v -0.738424 0.771573 0.237482
v -0.821108 0.771573 0.229338
v -0.900615 0.771573 0.205219
v -0.973889 0.771573 0.166053
v -1.038114 0.771573 0.113345
v -1.090822 0.771573 0.049120
v -1.129988 0.771573 -0.024154
v -1.154106 0.771573 -0.103661
v -1.162249 0.771573 -0.186346
v -1.154106 0.771573 -0.269030
v -1.129987 0.771573 -0.348537
v -1.090822 0.771573 -0.421811
v -1.038113 0.771573 -0.486035
v -0.973889 0.771573 -0.538744
v -0.900615 0.771573 -0.577909
v -0.821108 0.771573 -0.602028
v -0.738423 0.771573 -0.610171
v -0.655739 0.771573 -0.602028
v -0.576232 0.771573 -0.577909
v -0.502959 0.771573 -0.538744
v -0.438733 0.771573 -0.486036
v -0.386025 0.771573 -0.421811
v -0.346859 0.771573 -0.348538
v -0.322741 0.771573 -0.269031
v -0.314597 0.771573 -0.186347
v -0.322740 0.771573 -0.103662
v -0.346858 0.771573 -0.024155
v -0.386023 0.771573 0.049119
v -0.438731 0.771573 0.113344
v -0.502956 0.771573 0.166053
v -0.576229 0.771573 0.205219
v -0.655736 0.771573 0.229337
v -0.738423 0.771573 -0.186345
v -0.738969 0.678280 -0.200140
v -0.644496 0.678280 0.274796
v -0.553656 0.678280 0.247239
v -0.469938 0.678280 0.202490
v -0.396558 0.678280 0.142268
v -0.336337 0.678280 0.068888
v -0.291589 0.678280 -0.014831
v -0.264033 0.678280 -0.105671
v -0.254729 0.678280 -0.200142
v -0.264034 0.678280 -0.294612
v -0.291590 0.678280 -0.385452
v -0.336339 0.678280 -0.469170
v -0.396561 0.678280 -0.542550
v -0.469941 0.678280 -0.602771
v -0.553659 0.678280 -0.647519
v -0.644499 0.678280 -0.675076
v -0.738970 0.678280 -0.684380
v -0.833440 0.678280 -0.675075
v -0.924280 0.678280 -0.647519
v -1.007999 0.678280 -0.602771
v -1.081378 0.678280 -0.542549
v -1.141600 0.678280 -0.469170
v -1.186349 0.678280 -0.385451
v -1.213905 0.678280 -0.294611
v -1.223209 0.678280 -0.200141
v -1.213905 0.678280 -0.105670
v -1.186349 0.678280 -0.014830
v -1.141600 0.678280 0.068889
v -1.081380 0.678280 0.142269
v -1.008000 0.678280 0.202491
v -0.924281 0.678280 0.247239
v -0.833441 0.678280 0.274796
v -0.738970 0.678280 0.284101
v -0.644499 1.646760 0.274796
v -0.553659 1.646760 0.247240
v -0.469940 1.646760 0.202492
v -0.396560 1.646760 0.142270
v -0.336339 1.646760 0.068890
v -0.291590 1.646760 -0.014828
v -0.264034 1.646760 -0.105669
v -0.254729 1.646760 -0.200139
v -0.264034 1.646760 -0.294610
v -0.291590 1.646760 -0.385450
v -0.336338 1.646760 -0.469169
v -0.396560 1.646760 -0.542549
v -0.469940 1.646760 -0.602771
v -0.553659 1.646760 -0.647519
v -0.644498 1.646760 -0.675075
v -0.738969 1.646760 -0.684380
v -0.833440 1.646760 -0.675075
v -0.924280 1.646760 -0.647519
v -1.007999 1.646760 -0.602771
v -1.081378 1.646760 -0.542549
v -1.141600 1.646760 -0.469169
v -1.186349 1.646760 -0.385450
v -1.213905 1.646760 -0.294610
v -1.223209 1.646760 -0.200140
v -1.213905 1.646760 -0.105669
v -1.186349 1.646760 -0.014829
v -1.141600 1.646760 0.068889
v -1.081378 1.646760 0.142270
v -1.007999 1.646760 0.202491
v -0.924280 1.646760 0.247240
v -0.833440 1.646760 0.274796
v -0.738969 1.646760 0.284101
v -1.053554 0.716419 0.050801
v -1.053554 0.716419 -0.403147
v -0.599605 0.716419 -0.403147
v -0.599605 0.716419 0.050801
v -1.053554 0.097382 0.050801
v -1.053554 0.097382 -0.403147
v -0.599605 0.097382 -0.403147
v -0.599605 0.097382 0.050801
vn 0.000000 -1.000000 0.000000
vn -0.098018 -0.000000 0.995185
vn -0.290286 -0.000000 0.956940
vn -0.471399 -0.000000 0.881920
vn -0.634393 0.000000 0.773011
vn -0.773012 0.000000 0.634392
vn -0.881923 0.000000 0.471394
vn -0.956941 0.000000 0.290284
vn -0.995185 0.000000 0.098018
vn -0.995184 0.000000 -0.098020
vn -0.956941 0.000000 -0.290284
vn -0.881921 0.000000 -0.471397
vn -0.773009 0.000000 -0.634394
vn -0.634395 0.000000 -0.773009
vn -0.471396 0.000000 -0.881921
vn -0.290285 0.000000 -0.956940
vn -0.098018 0.000000 -0.995185
vn 0.098017 0.000000 -0.995185
vn 0.290286 -0.000000 -0.956940
vn 0.471395 -0.000000 -0.881922
vn 0.634393 0.000000 -0.773011
vn 0.773010 0.000000 -0.634394
vn 0.881921 -0.000000 -0.471398
vn 0.956940 0.000000 -0.290285
vn 0.995184 0.000000 -0.098022
vn 0.995185 0.000000 0.098018
vn 0.956941 -0.000000 0.290283
vn 0.881922 -0.000000 0.471395
vn 0.773012 -0.000000 0.634391
vn 0.634396 -0.000000 0.773008
vn 0.471398 -0.000000 0.881920
vn 0.290288 0.000000 0.956939
vn 0.098018 -0.000000 0.995185
vn -0.290288 -0.000000 -0.956939
vn -0.471398 0.000000 -0.881921
vn -0.634396 0.000000 -0.773009
vn -0.773013 0.000000 -0.634391
vn -0.881922 0.000000 -0.471395
vn -0.995185 -0.000000 -0.098016
vn -0.995184 -0.000000 0.098021
vn -0.881920 0.000000 0.471398
vn -0.773009 0.000000 0.634395
vn -0.471396 -0.000000 0.881922
vn -0.098017 -0.000000 0.995185
vn 0.290284 -0.000000 0.956941
vn 0.471397 -0.000000 0.881921
vn 0.634395 0.000000 0.773009
vn 0.773009 0.000000 0.634395
vn 0.881921 0.000000 0.471398
vn 0.956940 -0.000000 0.290285
vn 0.995185 -0.000000 0.098015
vn 0.995185 -0.000000 -0.098013
vn 0.881922 0.000000 -0.471395
vn 0.773011 -0.000000 -0.634392
vn 0.634395 -0.000000 -0.773009
vn 0.471397 0.000000 -0.881921
vn 0.290287 0.000000 -0.956940
vn 0.098018 0.000000 -0.995185
vn 0.000000 1.000000 0.000000
vn 1.000000 -0.000000 0.000000
vn -0.000000 0.000000 1.000000
vn -1.000000 -0.000000 -0.000000
vn 0.000000 0.000000 -1.000000
g Cube_Cube_Material
usemtl Material
s off
f 65//1 33//1 34//1
f 65//1 34//1 35//1
f 65//1 35//1 36//1
f 65//1 36//1 37//1
f 65//1 37//1 38//1
f 65//1 38//1 39//1
f 65//1 39//1 40//1
f 65//1 40//1 41//1
f 65//1 41//1 42//1
f 65//1 42//1 43//1
f 65//1 43//1 44//1
f 65//1 44//1 45//1
f 65//1 45//1 46//1
f 65//1 46//1 47//1
f 65//1 47//1 48//1
f 65//1 48//1 49//1
f 65//1 49//1 50//1
f 65//1 50//1 51//1
f 65//1 51//1 52//1
f 65//1 52//1 53//1
f 65//1 53//1 54//1
f 65//1 54//1 55//1
f 65//1 55//1 56//1
f 65//1 56//1 57//1
f 65//1 57//1 58//1
f 65//1 58//1 59//1
f 65//1 59//1 60//1
f 65//1 60//1 61//1
f 65//1 61//1 62//1
f 65//1 62//1 63//1
f 65//1 63//1 64//1
f 65//1 64//1 33//1
f 1//2 2//2 34//2
f 1//2 34//2 33//2
f 2//3 3//3 35//3
f 2//3 35//3 34//3
f 3//4 4//4 36//4
f 3//4 36//4 35//4
f 4//5 5//5 37//5
f 4//5 37//5 36//5
f 5//6 6//6 38//6
f 5//6 38//6 37//6
f 6//7 7//7 39//7
f 6//7 39//7 38//7
f 7//8 8//8 40//8
f 7//8 40//8 39//8
f 8//9 9//9 41//9
f 8//9 41//9 40//9
f 9//10 10//10 42//10
f 9//10 42//10 41//10
f 10//11 11//11 43//11
f 10//11 43//11 42//11
f 11//12 12//12 44//12
f 11//12 44//12 43//12
f 12//13 13//13 45//13
f 12//13 45//13 44//13
f 13//14 14//14 46//14
f 13//14 46//14 45//14
f 14//15 15//15 47//15
f 14//15 47//15 46//15
f 15//16 16//16 48//16
f 15//16 48//16 47//16
f 16//17 17//17 49//17
f 16//17 49//17 48//17
f 17//18 18//18 50//18
f 17//18 50//18 49//18
f 18//19 19//19 51//19
f 18//19 51//19 50//19
f 19//20 20//20 52//20
f 19//20 52//20 51//20
f 20//21 21//21 53//21
f 20//21 53//21 52//21
f 21//22 22//22 54//22
f 21//22 54//22 53//22
f 22//23 23//23 55//23
f 22//23 55//23 54//23
f 23//24 24//24 56//24
f 23//24 56//24 55//24
f 24//25 25//25 57//25
f 24//25 57//25 56//25
f 25//26 26//26 58//26
f 25//26 58//26 57//26
f 26//27 27//27 59//27
f 26//27 59//27 58//27
f 27//28 28//28 60//28
f 27//28 60//28 59//28
f 28//29 29//29 61//29
f 28//29 61//29 60//29
f 29//30 30//30 62//30
f 29//30 62//30 61//30
f 30//31 31//31 63//31
f 30//31 63//31 62//31
f 31//32 32//32 64//32
f 31//32 64//32 63//32
f 32//33 1//33 33//33
f 32//33 33//33 64//33
f 99//17 67//17 98//17
f 99//17 98//17 130//17
f 100//34 68//34 67//34
f 100//34 67//34 99//34
f 101//35 69//35 68//35
f 101//35 68//35 100//35
f 102//36 70//36 69//36
f 102//36 69//36 101//36
f 103//37 71//37 70//37
f 103//37 70//37 102//37
f 104//38 72//38 71//38
f 104//38 71//38 103//38
f 105//11 73//11 72//11
f 105//11 72//11 104//11
f 106//39 74//39 73//39
f 106//39 73//39 105//39
f 107//40 75//40 74//40
f 107//40 74//40 106//40
f 108//8 76//8 75//8
f 108//8 75//8 107//8
f 109//41 77//41 76//41
f 109//41 76//41 108//41
f 110//42 78//42 77//42
f 110//42 77//42 109//42
f 111//5 79//5 78//5
f 111//5 78//5 110//5
f 112//43 80//43 79//43
f 112//43 79//43 111//43
f 113//3 81//3 80//3
f 113//3 80//3 112//3
f 114//44 82//44 81//44
f 114//44 81//44 113//44
f 115//33 83//33 82//33
f 115//33 82//33 114//33
f 116//45 84//45 83//45
f 116//45 83//45 115//45
f 117//46 85//46 84//46
f 117//46 84//46 116//46
f 118//47 86//47 85//47
f 118//47 85//47 117//47
f 119//48 87//48 86//48
f 119//48 86//48 118//48
f 120//49 88//49 87//49
f 120//49 87//49 119//49
f 121//50 89//50 88//50
f 121//50 88//50 120//50
f 122//51 90//51 89//51
f 122//51 89//51 121//51
f 123//52 91//52 90//52
f 123//52 90//52 122//52
f 124//24 92//24 91//24
f 124//24 91//24 123//24
f 125//53 93//53 92//53
f 125//53 92//53 124//53
f 126//54 94//54 93//54
f 126//54 93//54 125//54
f 127//55 95//55 94//55
f 127//55 94//55 126//55
f 128//56 96//56 95//56
f 128//56 95//56 127//56
f 129//57 97//57 96//57
f 129//57 96//57 128//57
f 130//58 98//58 97//58
f 130//58 97//58 129//58
f 66//59 98//59 67//59
f 66//59 67//59 68//59
f 66//59 68//59 69//59
f 66//59 69//59 70//59
f 66//59 70//59 71//59
f 66//59 71//59 72//59
f 66//59 72//59 73//59
f 66//59 73//59 74//59
f 66//59 74//59 75//59
f 66//59 75//59 76//59
f 66//59 76//59 77//59
f 66//59 77//59 78//59
f 66//59 78//59 79//59
f 66//59 79//59 80//59
f 66//59 80//59 81//59
f 66//59 81//59 82//59
f 66//59 82//59 83//59
f 66//59 83//59 84//59
f 66//59 84//59 85//59
f 66//59 85//59 86//59
f 66//59 86//59 87//59
f 66//59 87//59 88//59
f 66//59 88//59 89//59
f 66//59 89//59 90//59
f 66//59 90//59 91//59
f 66//59 91//59 92//59
f 66//59 92//59 93//59
f 66//59 93//59 94//59
f 66//59 94//59 95//59
f 66//59 95//59 96//59
f 66//59 96//59 97//59
f 66//59 97//59 98//59
f 133//1 134//1 131//1
f 133//1 131//1 132//1
f 135//59 138//59 137//59
f 135//59 137//59 136//59
f 131//60 135//60 136//60
f 131//60 136//60 132//60
f 132//61 136//61 137//61
f 132//61 137//61 133//61
f 133//62 137//62 138//62
f 133//62 138//62 134//62
f 134//63 138//63 135//63
f 134//63 135//63 131//63
